# xmcd
#
# Track frame offsets: 
#        150
#        14468
#        26337
#        40019
#        53250
#        69316
#        83721
#        97164
#        111092
#        125377
#        148496
#        162865
#        176376
#        191016
#
# Disc length: 2703 seconds
#
# Revision: 0
# Processed by: cddbd v1.5.2PL0 Copyright (c) Steve Scherf et al.
# Submitted via: ExactAudioCopy v0.95b3
#
DISCID=b10a8d0e
DTITLE=The Grass Roots  - Golden Grass-Greatest Hits Volume One (1968)
DYEAR=1900
DGENRE=
TTITLE0=Bella Linda
TTITLE1=Things I Should Have Said
TTITLE2=Melody For You
TTITLE3=Midnight Confessions
TTITLE4=Here's Where You Belong
TTITLE5=Feelings
TTITLE6=Lady Pleasure
TTITLE7=Where Were You When I Needed You
TTITLE8=Wake Up, Wake Up
TTITLE9=Hot Bright Lights
TTITLE10=Let's Live For Today
TTITLE11=Mr. Jones (Ballad Of A Thin Man)
TTITLE12=Only When You're Lonely
TTITLE13=Tip Of My Tongue
EXTD=
EXTT0=
EXTT1=
EXTT2=
EXTT3=
EXTT4=
EXTT5=
EXTT6=
EXTT7=
EXTT8=
EXTT9=
EXTT10=
EXTT11=
EXTT12=
EXTT13=
PLAYORDER=
